#!OML:ASF H:\Male1\Project 1\Capture day 1\Session 1\Male1.ASF
:FULLY-SPECIFIED
:DEGREES
310
root 24.4473 14.624 1.16582 -30.3238 78.3268 -21.918
lowerback 20.1854 2.70572 -4.70212
upperback 8.98599 3.20806 -3.00156
thorax -1.58693 1.80389 -1.21251
lowerneck -7.21524 7.45582 12.9491
upperneck 14.4414 10.6392 -12.4641
head 6.94693 5.02756 -5.20847
rclavicle 4.45278e-014 -4.77083e-014
rhumerus -53.4255 8.05027 -88.1832
rradius 88.8039
rwrist -25.9028
rhand -24.9382 4.30256
rfingers 7.12502
rthumb 1.5713 -25.6714
lclavicle 4.45278e-014 -4.77083e-014
lhumerus -27.9336 14.3889 70.9994
lradius 29.2688
lwrist -12.8934
lhand -19.8522 10.5822
lfingers 7.12502
lthumb 6.48251 40.463
rfemur -36.1809 8.95645 27.0773
rtibia 68.6373
rfoot -13.3498 -18.6068
rtoes -36.3552
lfemur -16.7176 -8.11855 -20.8862
ltibia 48.1836
lfoot -21.6116 13.8187
ltoes -5.20174
311
root 24.556 14.6847 1.17216 -30.5494 78.4983 -22.1093
lowerback 19.8474 2.54824 -4.60375
upperback 9.14096 3.06066 -2.91725
thorax -1.24805 1.72846 -1.12344
lowerneck -6.61431 7.91537 13.2148
upperneck 14.1044 11.3378 -12.7901
head 6.86498 5.37885 -5.29736
rclavicle 9.54166e-015 3.18055e-015
rhumerus -53.2395 8.24365 -88.3048
rradius 89.4652
rwrist -26.6825
rhand -25.1326 5.12112
rfingers 7.12502
rthumb 1.38355 -24.8541
lclavicle 9.54166e-015 3.18055e-015
lhumerus -28.4728 13.1723 73.0713
lradius 32.5612
lwrist -8.70178
lhand -19.7514 9.16406
lfingers 7.12502
lthumb 6.57983 39.0418
rfemur -35.6208 9.05709 27.4614
rtibia 67.312
rfoot -13.569 -18.3024
rtoes -36.0623
lfemur -15.5825 -8.8502 -21.1853
ltibia 47.1536
lfoot -21.5149 14.3748
ltoes -5.36257
312
root 24.6643 14.7713 1.17999 -32.3957 78.3212 -24.0095
lowerback 19.3574 2.38012 -4.11947
upperback 9.25849 2.96357 -2.70422
thorax -0.867312 1.6814 -1.12031
lowerneck -6.05494 8.33504 13.3229
upperneck 13.8576 11.9706 -12.9095
head 6.79129 5.70316 -5.29942
rclavicle 1.51076e-014 -2.38542e-014
rhumerus -52.9883 8.50489 -88.3858
rradius 89.863
rwrist -28.1397
rhand -25.4325 4.73077
rfingers 7.12502
rthumb 1.09389 -25.2462
lclavicle 1.51076e-014 -2.38542e-014
lhumerus -29.06 11.8569 75.0495
lradius 35.9637
lwrist -3.93598
lhand -19.9938 7.11485
lfingers 7.12502
lthumb 6.3458 36.9998
rfemur -34.8369 9.20253 28.2947
rtibia 65.8107
rfoot -13.6159 -18.1372
rtoes -36.211
lfemur -14.2859 -9.29427 -20.9248
ltibia 45.7539
lfoot -21.4132 14.6937
ltoes -5.19891
313
root 24.7647 14.8684 1.19428 -33.6585 78.0246 -25.4314
lowerback 18.8115 2.32729 -3.68175
upperback 9.25554 2.9892 -2.51733
thorax -0.588708 1.69351 -1.14595
lowerneck -5.59107 8.70334 13.5041
upperneck 13.9554 12.5462 -12.9557
head 6.83696 6.00434 -5.29374
rclavicle 2.3059e-014 -2.70347e-014
rhumerus -52.7904 8.47241 -88.372
rradius 90.1214
rwrist -29.7368
rhand -25.3401 3.89041
rfingers 7.12502
rthumb 1.18306 -26.0861
lclavicle 2.3059e-014 -2.70347e-014
lhumerus -29.6631 10.47 76.7944
lradius 39.6137
lwrist -0.584258
lhand -19.0229 7.07524
lfingers 7.12502
lthumb 7.28308 36.9299
rfemur -34.101 9.56411 29.0259
rtibia 64.3386
rfoot -13.5605 -17.9901
rtoes -36.3242
lfemur -12.9687 -9.51961 -20.584
ltibia 44.0154
lfoot -21.1127 14.9006
ltoes -4.42773
314
root 24.857 14.9608 1.21063 -31.525 78.358 -23.4972
lowerback 18.3478 2.38831 -3.91327
upperback 9.16481 3.04302 -2.65061
thorax -0.451289 1.71128 -1.1468
lowerneck -5.24074 9.04189 14.0261
upperneck 14.2693 13.1032 -13.2296
head 7.00965 6.29522 -5.41512
rclavicle -1.59028e-014 -2.06736e-014
rhumerus -52.6386 7.9592 -88.3657
rradius 90.0904
rwrist -31.0586
rhand -25.219 3.70515
rfingers 7.12502
rthumb 1.30003 -26.2706
lclavicle -1.59028e-014 -2.06736e-014
lhumerus -30.0899 8.64038 78.4119
lradius 42.9423
lwrist 2.13168
lhand -18.821 6.53129
lfingers 7.12502
lthumb 7.47795 36.3791
rfemur -33.6179 9.77865 28.6023
rtibia 63.1438
rfoot -13.6185 -17.7212
rtoes -36.1833
lfemur -11.6909 -9.89556 -21.2106
ltibia 42.0453
lfoot -20.6494 15.142
ltoes -3.3748
